<svg width="691" height="404" viewBox="0 0 691 404" fill="none" xmlns="http://www.w3.org/2000/svg">
<path d="M8.232 371.168C5.16 371.168 3.112 370.144 2.088 368.096C1.064 366.048 0.552002 363.829 0.552002 361.44V360.416C0.552002 341.984 1.91733 324.747 4.648 308.704C7.37867 292.661 9.93867 276.448 12.328 260.064C15.0587 243.339 16.424 225.077 16.424 205.28C16.424 199.819 16.0827 193.504 15.4 186.336C15.0587 178.827 13.864 171.488 11.816 164.32C10.1093 157.152 7.37867 151.52 3.624 147.424C2.25867 146.059 1.576 144.352 1.576 142.304C1.576 139.232 2.94133 136.501 5.672 134.112C8.40267 131.723 11.304 130.357 14.376 130.016L18.984 132.064C23.08 135.819 25.9813 142.475 27.688 152.032C29.3947 161.248 30.4187 170.635 30.76 180.192C31.1013 189.749 31.272 197.259 31.272 202.72C31.272 210.229 31.1013 217.739 30.76 225.248C30.4187 232.757 29.9067 240.437 29.224 248.288C30.9307 243.851 33.32 238.219 36.392 231.392C39.464 224.224 43.048 217.227 47.144 210.4C51.5813 203.232 56.1893 197.259 60.968 192.48C66.088 187.701 71.5493 185.312 77.352 185.312C83.1547 185.312 87.592 188.555 90.664 195.04C93.736 201.184 95.784 208.864 96.808 218.08C98.1733 227.296 99.0267 236.171 99.368 244.704C99.7093 252.896 99.88 259.04 99.88 263.136C101.928 258.016 105.171 250.677 109.608 241.12C114.387 231.563 119.848 221.152 125.992 209.888C132.477 198.624 139.304 187.872 146.472 177.632C153.64 167.392 160.637 159.029 167.464 152.544C174.291 145.717 180.605 142.304 186.408 142.304C191.187 142.304 194.088 144.864 195.112 149.984C196.477 155.104 197.16 159.371 197.16 162.784C197.16 176.437 195.795 190.261 193.064 204.256C190.675 218.251 188.115 232.416 185.384 246.752C182.995 261.088 181.8 275.595 181.8 290.272C181.8 291.979 181.8 295.733 181.8 301.536C182.141 307.339 182.824 312.8 183.848 317.92C185.213 322.699 187.432 325.088 190.504 325.088C195.624 325.088 200.915 322.528 206.376 317.408C211.837 312.288 216.787 306.485 221.224 300C226.003 293.173 229.928 287.2 233 282.08C236.413 276.619 238.632 273.888 239.656 273.888C241.021 275.253 241.704 276.96 241.704 279.008C241.704 282.421 239.827 287.541 236.072 294.368C232.317 301.195 227.539 308.192 221.736 315.36C216.275 322.528 210.643 328.672 204.84 333.792C199.037 338.571 194.259 340.96 190.504 340.96C184.019 340.96 178.899 337.717 175.144 331.232C171.731 324.747 169.341 317.408 167.976 309.216C166.952 301.024 166.44 294.709 166.44 290.272C166.44 276.96 167.293 263.819 169 250.848C170.707 237.536 172.755 224.395 175.144 211.424C176.509 204.597 178.216 197.429 180.264 189.92C182.653 182.411 183.848 175.243 183.848 168.416C183.848 166.368 183.165 164.32 181.8 162.272L180.776 161.76C178.728 161.76 175.997 163.808 172.584 167.904C169.171 171.659 165.928 175.755 162.856 180.192C160.125 184.629 158.077 187.701 156.712 189.408C143.741 207.84 133.331 226.955 125.48 246.752C117.629 266.208 108.755 286.005 98.856 306.144C98.1733 307.509 97.1493 308.875 95.784 310.24C94.76 311.605 93.3947 312.288 91.688 312.288C88.2747 312.288 85.8853 309.045 84.52 302.56C83.496 295.733 82.984 288.053 82.984 279.52C82.984 271.669 83.1547 264.331 83.496 257.504C84.1787 250.336 84.52 245.387 84.52 242.656C84.52 241.291 84.3493 238.389 84.008 233.952C84.008 229.515 83.6667 224.736 82.984 219.616C82.6427 214.496 81.96 210.059 80.936 206.304C80.2533 202.549 79.0587 200.672 77.352 200.672C73.9387 200.672 71.208 202.037 69.16 204.768C67.4533 207.499 65.7467 210.229 64.04 212.96C54.1413 229.685 46.12 246.923 39.976 264.672C34.5147 281.056 30.5893 297.952 28.2 315.36C25.8107 332.427 21.7147 348.981 15.912 365.024C14.888 369.12 12.328 371.168 8.232 371.168ZM430.192 403.936C425.755 403.936 422.853 401.888 421.488 397.792C420.464 393.696 419.952 389.941 419.952 386.528C419.952 382.091 420.805 376.117 422.512 368.608C424.219 361.099 426.437 353.077 429.168 344.544C431.899 336.011 434.459 327.989 436.848 320.48C439.579 312.971 441.797 306.997 443.504 302.56C443.504 288.907 443.333 275.424 442.992 262.112C442.651 248.8 442.48 235.317 442.48 221.664C442.48 213.472 441.797 202.72 440.432 189.408C439.408 176.096 437.531 161.76 434.8 146.4C432.069 130.699 428.485 115.168 424.048 99.808C419.611 84.448 414.149 70.4533 407.664 57.824C401.179 44.8533 393.499 34.4426 384.624 26.592C375.749 18.7413 365.68 14.816 354.416 14.816C341.104 14.816 328.645 18.5706 317.04 26.08C305.776 33.248 295.707 42.976 286.832 55.264C277.957 67.2107 270.277 80.352 263.792 94.688C257.648 109.024 252.869 123.36 249.456 137.696C246.384 151.691 244.848 164.32 244.848 175.584C244.848 183.093 245.872 190.944 247.92 199.136C250.309 207.328 254.064 214.325 259.184 220.128C264.645 225.589 271.984 228.32 281.2 228.32C289.392 228.32 296.901 226.272 303.728 222.176C310.896 218.08 317.381 213.472 323.184 208.352C328.987 202.891 333.936 198.112 338.032 194.016C342.128 189.92 345.029 187.872 346.736 187.872C347.077 188.213 347.248 189.067 347.248 190.432C347.248 194.869 344.688 199.989 339.568 205.792C334.448 211.253 328.133 216.715 320.624 222.176C313.115 227.296 305.776 231.563 298.608 234.976C291.44 238.048 285.637 239.584 281.2 239.584C268.912 239.584 259.013 236.512 251.504 230.368C243.995 223.883 238.363 215.691 234.608 205.792C231.195 195.893 229.488 185.483 229.488 174.56C229.488 161.589 231.365 147.424 235.12 132.064C239.216 116.704 245.019 101.344 252.528 85.984C260.037 70.2826 268.912 56.1173 279.152 43.488C289.392 30.5173 300.997 20.1066 313.968 12.256C326.939 4.40531 340.933 0.47998 355.952 0.47998C372.336 0.47998 386.331 5.42931 397.936 15.328C409.541 24.8853 419.099 37.856 426.608 54.24C434.117 70.2827 439.92 88.2027 444.016 108C448.453 127.456 451.696 147.253 453.744 167.392C455.792 187.189 456.987 205.792 457.328 223.2C458.011 240.267 458.352 254.432 458.352 265.696C463.813 253.067 470.811 238.389 479.344 221.664C487.877 204.597 497.605 186.677 508.528 167.904C519.451 149.131 531.397 130.869 544.368 113.12C557.339 95.0293 570.821 78.6453 584.816 63.968C599.152 49.2907 613.659 37.6853 628.336 29.152C643.013 20.2773 657.691 15.84 672.368 15.84C678.512 15.84 682.949 17.888 685.68 21.984C688.752 25.7387 690.288 30.5173 690.288 36.32C690.288 38.0266 689.776 41.0986 688.752 45.536C688.069 49.9733 686.875 54.0693 685.168 57.824C683.803 61.2373 681.925 62.944 679.536 62.944C678.171 62.944 677.147 62.432 676.464 61.408C675.781 60.0427 675.44 58.6773 675.44 57.312C675.44 54.5813 676.123 52.0213 677.488 49.632C678.853 47.2426 679.536 44.6826 679.536 41.952C679.536 39.904 678.683 38.5386 676.976 37.856C675.611 37.1733 674.075 36.832 672.368 36.832C657.349 36.832 642.331 41.6106 627.312 51.168C612.293 60.7253 597.957 72.8427 584.304 87.52C570.992 101.856 558.875 116.704 547.952 132.064C537.029 147.424 527.984 161.077 520.816 173.024C516.037 180.533 510.405 190.432 503.92 202.72C497.435 214.667 490.949 227.467 484.464 241.12C477.979 254.432 472.176 267.403 467.056 280.032C462.277 292.661 459.205 303.413 457.84 312.288C456.475 321.504 455.621 330.891 455.28 340.448C455.28 350.005 454.597 359.392 453.232 368.608C452.891 372.021 451.696 376.459 449.648 381.92C447.941 387.723 445.552 392.843 442.48 397.28C439.408 401.717 435.312 403.936 430.192 403.936Z" fill="currentColor"/>
</svg>
